#!OML:ASF H:\MichaelJackson\Top Level 1\Subject 1\Session 1\male.ASF
:FULLY-SPECIFIED
:DEGREES
311
root 6.30354 15.7414 -28.6816 -43.5561 80.2856 -62.1023
lowerback 6.90524 1.16325 -0.980612
upperback -1.71643 1.52852 1.08748
thorax -5.71963 0.810059 1.50312
lowerneck -10.7781 -6.45744 -0.0654729
upperneck 14.3621 -8.61059 -0.430419
head 6.10649 -4.18196 -0.840293
rclavicle 7.95139e-016 1.59028e-014
rhumerus -49.4136 33.2812 -78.6346
rradius 106.137
rwrist 15.7339
rhand 58.3859 -17.4898
rfingers 7.12502
rthumb 74.1724 9.35128
lclavicle 7.95139e-016 1.59028e-014
lhumerus -47.0279 -24.9966 95.5846
lradius 70.0237
lwrist 27.0543
lhand -23.1241 9.58538
lfingers 7.12502
lthumb 3.32329 39.5392
rfemur -19.7179 -9.60738 18.3038
rtibia 69.4531
rfoot 13.4326 13.1393
rtoes -28.9714
lfemur -49.665 -8.00271 -2.90811
ltibia 60.6919
lfoot -28.4093 7.90132
ltoes -5.31821
312
root 6.42881 15.7321 -28.6711 -48.0777 81.0884 -66.5206
lowerback 7.54513 1.37548 -1.43473
upperback -1.4323 1.76647 1.15542
thorax -5.81086 0.942184 1.79043
lowerneck -10.6124 -6.73786 -0.302393
upperneck 14.2902 -8.96437 -0.312397
head 6.07133 -4.35743 -0.78811
rclavicle -1.13307e-014 1.51076e-014
rhumerus -50.2645 34.4193 -82.0737
rradius 108.041
rwrist 13.2672
rhand 61.2801 -17.6368
rfingers 7.12502
rthumb 74.8295 19.3864
lclavicle -1.13307e-014 1.51076e-014
lhumerus -46.3232 -24.7464 95.0381
lradius 69.3379
lwrist 26.8573
lhand -24.2064 9.23858
lfingers 7.12502
lthumb 2.27806 39.2062
rfemur -22.5867 -10.1985 18.5472
rtibia 73.1693
rfoot 10.0144 14.1699
rtoes -30.5283
lfemur -49.4403 -8.42829 -3.40014
ltibia 60.8588
lfoot -28.8915 7.58908
ltoes -5.73215
313
root 6.55316 15.7206 -28.6606 -53.1946 81.7268 -71.5437
lowerback 8.20058 1.60372 -1.74554
upperback -1.15609 2.03725 1.24205
thorax -5.91993 1.08602 2.00878
lowerneck -10.4732 -7.00564 -0.594687
upperneck 14.2827 -9.29517 -0.175968
head 6.06599 -4.52197 -0.722437
rclavicle 6.55989e-015 -2.38542e-015
rhumerus -50.5728 35.1807 -84.9587
rradius 110.113
rwrist 10.421
rhand 61.3019 -17.9578
rfingers 7.12502
rthumb 74.8325 19.145
lclavicle 6.55989e-015 -2.38542e-015
lhumerus -45.638 -24.5389 94.4912
lradius 68.5639
lwrist 26.5144
lhand -25.0081 8.95758
lfingers 7.12502
lthumb 1.50376 38.932
rfemur -25.5348 -10.8011 18.9098
rtibia 76.6962
rfoot 6.88948 14.0907
rtoes -31.765
lfemur -49.2123 -8.6358 -3.85723
ltibia 61.0798
lfoot -29.4018 7.20609
ltoes -6.19217
314
root 6.67715 15.7061 -28.6508 -59.0179 82.1889 -77.2798
lowerback 8.87703 1.83571 -1.92767
upperback -0.897973 2.32785 1.38462
thorax -6.0609 1.2369 2.20596
lowerneck -10.3246 -7.25583 -0.898168
upperneck 14.3031 -9.58987 -0.105888
head 6.06639 -4.67421 -0.672988
rclavicle -7.35503e-015 -1.66979e-014
rhumerus -50.2897 35.6532 -87.1532
rradius 112.319
rwrist 7.60375
rhand 59.1462 -18.036
rfingers 7.12502
rthumb 74.393 11.3909
lclavicle -7.35503e-015 -1.66979e-014
lhumerus -44.9858 -24.2872 93.9945
lradius 67.6745
lwrist 25.9613
lhand -25.5222 8.76575
lfingers 7.12502
lthumb 1.00722 38.7431
rfemur -28.542 -11.415 19.4139
rtibia 79.9952
rfoot 4.16049 13.0249
rtoes -32.5338
lfemur -48.9924 -8.66368 -4.24995
ltibia 61.3641
lfoot -29.951 6.73735
ltoes -6.64467
315
root 6.80151 15.6879 -28.6419 -65.4882 82.4825 -83.663
lowerback 9.55814 2.05667 -1.97676
upperback -0.652754 2.62104 1.56831
thorax -6.21618 1.38589 2.36664
lowerneck -10.1537 -7.48862 -1.18985
upperneck 14.3334 -9.85418 -0.0925475
head 6.06351 -4.81528 -0.639688
rclavicle -8.54774e-015 -7.55382e-015
rhumerus -49.3805 35.8595 -88.6311
rradius 114.601
rwrist 5.05109
rhand 55.4859 -17.6176
rfingers 7.12502
rthumb 73.0489 0.116511
lclavicle -8.54774e-015 -7.55382e-015
lhumerus -44.4474 -24.0537 93.5399
lradius 66.7693
lwrist 25.228
lhand -25.7554 8.6646
lfingers 7.12502
lthumb 0.781984 38.6429
rfemur -31.5795 -12.0568 20.0495
rtibia 82.9668
rfoot 1.92551 11.2537
rtoes -32.8157
lfemur -48.752 -8.56607 -4.58114
ltibia 61.6072
lfoot -30.474 6.17471
ltoes -7.09988
316
root 6.92672 15.6655 -28.6337 -72.2294 82.628 -90.3262
lowerback 10.2179 2.2579 -1.9409
upperback -0.423088 2.90195 1.7835
thorax -6.37362 1.52708 2.51106
lowerneck -9.95029 -7.69862 -1.45602
upperneck 14.3638 -10.0839 -0.131794
head 6.05164 -4.9422 -0.622125
rclavicle 3.37934e-015 -1.82882e-014
rhumerus -47.8282 35.8511 -89.4046
rradius 116.881
rwrist 2.74108
rhand 50.7123 -16.7202
rfingers 7.12502
rthumb 70.4108 -11.0979
lclavicle 3.37934e-015 -1.82882e-014
lhumerus -44.0421 -23.7996 93.1144
lradius 65.859
lwrist 24.282
lhand -25.7139 8.60437
lfingers 7.12502
lthumb 0.822096 38.5825
rfemur -34.667 -12.7084 20.7818
rtibia 85.657
rfoot 0.134392 8.9976
rtoes -32.5303
lfemur -48.5354 -8.38165 -4.86926
ltibia 61.9168
lfoot -31.0458 5.56075
ltoes -7.50083
317
root 7.06227 15.6844 -28.6263 -79.0641 82.6671 -97.0819
lowerback 10.8472 2.42574 -1.86487
upperback -0.205088 3.14778 2.01981
thorax -6.52358 1.6505 2.65841
lowerneck -9.71074 -7.8852 -1.71208
upperneck 14.4024 -10.2801 -0.196474
head 6.03463 -5.05399 -0.609599
rclavicle -2.52457e-014 -3.57812e-015
rhumerus -45.6808 35.6545 -89.5297
rradius 119.145
rwrist 0.469082
rhand 45.4687 -15.8134
rfingers 7.12502
rthumb 66.7424 -19.7932
lclavicle -2.52457e-014 -3.57812e-015
lhumerus -43.7884 -23.4977 92.72
lradius 64.9627
lwrist 23.1532
lhand -25.4434 8.55316
lfingers 7.12502
lthumb 1.08334 38.5302
rfemur -37.5901 -13.3417 21.5972
rtibia 87.7919
rfoot -1.21635 6.47219
rtoes -31.7742
lfemur -48.1109 -8.19566 -5.16554
ltibia 62.1048
lfoot -31.6864 4.97354
ltoes -7.84785
318
root 7.19052 15.6524 -28.62 -85.6355 82.6187 -103.577
lowerback 11.4266 2.55928 -1.76768
upperback 0.00355494 3.35432 2.26074
thorax -6.65207 1.75427 2.80468
lowerneck -9.44146 -8.04764 -1.95461
upperneck 14.461 -10.4456 -0.267467
head 6.01803 -5.15013 -0.597515
rclavicle 3.27995e-015 -3.37934e-015
rhumerus -42.9958 35.2306 -89.1297
rradius 121.318
rwrist -1.96013
rhand 40.0155 -14.8111
rfingers 7.12502
rthumb 62.408 -25.7875
lclavicle 3.27995e-015 -3.37934e-015
lhumerus -43.6891 -23.1377 92.3365
lradius 64.097
lwrist 21.9021
lhand -24.9809 8.4865
lfingers 7.12502
lthumb 1.53004 38.4608
rfemur -40.7128 -13.9626 22.386
rtibia 89.8427
rfoot -2.33511 3.96086
rtoes -30.5351
lfemur -47.9187 -7.98743 -5.43818
ltibia 62.5283
lfoot -32.3388 4.37812
ltoes -8.13829
319
root 7.32091 15.6152 -28.6147 -91.7853 82.5493 -109.646
lowerback 11.9549 2.6639 -1.68771
upperback 0.208023 3.52034 2.47146
thorax -6.75254 1.83807 2.93618
lowerneck -9.16655 -8.19257 -2.17899
upperneck 14.565 -10.5946 -0.314784
head 6.01542 -5.23463 -0.580362
rclavicle -3.55825e-014 1.49089e-014
rhumerus -39.9043 34.5264 -88.2331
rradius 123.458
rwrist -4.80453
rhand 34.7624 -13.5748
rfingers 7.12502
rthumb 57.93 -29.3589
lclavicle -3.55825e-014 1.49089e-014
lhumerus -43.7339 -22.7526 91.9395
lradius 63.2721
lwrist 20.6312
lhand -24.3839 8.37469
lfingers 7.12502
lthumb 2.10655 38.344
rfemur -43.838 -14.5074 23.1046
rtibia 91.5564
rfoot -3.24287 1.61572
rtoes -28.8706
lfemur -47.721 -7.80766 -5.75948
ltibia 63.0037
lfoot -33.0315 3.83096
ltoes -8.3472
320
root 7.45372 15.5726 -28.6103 -97.4325 82.4766 -115.188
lowerback 12.4484 2.75197 -1.61314
upperback 0.419414 3.66149 2.6343
thorax -6.82117 1.90858 3.02491
lowerneck -8.91461 -8.3294 -2.36616
upperneck 14.7318 -10.7431 -0.332551
head 6.03643 -5.31363 -0.562387
rclavicle -3.08116e-015 -4.62671e-014
rhumerus -36.4887 33.427 -87.051
rradius 125.446
rwrist -8.12709
rhand 29.9304 -12.5376
rfingers 7.12502
rthumb 53.6444 -31.6133
lclavicle -3.08116e-015 -4.62671e-014
lhumerus -43.8913 -22.3855 91.5121
lradius 62.4815
lwrist 19.4408
lhand -23.724 8.23405
lfingers 7.12502
lthumb 2.74394 38.1961
rfemur -46.9241 -14.9378 23.7368
rtibia 92.9687
rfoot -4.06426 -0.439631
rtoes -27.0262
lfemur -47.5192 -7.6578 -6.13026
ltibia 63.6393
lfoot -33.8336 3.37465
ltoes -8.51255
321
root 7.58826 15.5244 -28.6067 -102.596 82.4311 -120.225
lowerback 12.9158 2.83902 -1.55269
upperback 0.634665 3.79568 2.74107
thorax -6.86693 1.97465 3.06356
lowerneck -8.69167 -8.47101 -2.52489
upperneck 14.9611 -10.9078 -0.313947
head 6.08316 -5.39515 -0.541925
rclavicle 3.03644e-014 -3.19049e-014
rhumerus -32.9015 31.8741 -85.7436
rradius 127.262
rwrist -12.0088
rhand 25.6308 -11.6497
rfingers 7.12502
rthumb 49.7397 -33.0081
lclavicle 3.03644e-014 -3.19049e-014
lhumerus -44.1401 -22.0829 91.0747
lradius 61.7194
lwrist 18.4349
lhand -23.0879 8.10815
lfingers 7.12502
lthumb 3.3582 38.0614
rfemur -49.9628 -15.2366 24.2503
rtibia 94.0209
rfoot -4.78515 -2.09808
rtoes -25.1252
lfemur -47.2869 -7.52416 -6.56572
ltibia 64.3376
lfoot -34.6662 3.00541
ltoes -8.62321
